PathFileType	4	(X/Y/Z)	pose2sim_0-707.trc
DataRate	CameraRate	NumFrames	NumMarkers	Units	OrigDataRate	OrigDataStartFrame	OrigNumFrames
50	50	6	22	m	50	619	708
Frame#	Time	Hip			RHip			RKnee			RAnkle			RBigToe			RSmallToe			RHeel			LHip			LKnee			LAnkle			LBigToe			LSmallToe			LHeel			Neck			Head			Nose			RShoulder			RElbow			RWrist			LShoulder			LElbow			LWrist			
		X1	Y1	Z1	X2	Y2	Z2	X3	Y3	Z3	X4	Y4	Z4	X5	Y5	Z5	X6	Y6	Z6	X7	Y7	Z7	X8	Y8	Z8	X9	Y9	Z9	X10	Y10	Z10	X11	Y11	Z11	X12	Y12	Z12	X13	Y13	Z13	X14	Y14	Z14	X15	Y15	Z15	X16	Y16	Z16	X17	Y17	Z17	X18	Y18	Z18	X19	Y19	Z19	X20	Y20	Z20	X21	Y21	Z21	X22	Y22	Z22	
619	12.38	0.11372513583969722	0.9086184972281403	-0.095372889738764	0.0038902860460336332	0.8977085526196217	-0.09882074744538392	-0.023225764093533365	0.49782983000716463	-0.12663318349912292	-0.017437013298302658	0.09653033190423614	-0.1482717114239527	-0.025623930676747616	0.04143407411484981	0.03717538343800451	-0.07241002022916353	0.04410770067742087	-0.024928787995261294	-0.004120340798287466	0.053123541138907535	-0.18762569084727784	0.22631283514832448	0.8957258526834525	-0.10036684899628094	0.24406752634848522	0.4989282531554054	-0.13246802636769636	0.2593989109410061	0.09984212775316921	-0.15536503794130477	0.2785414112345439	0.0436954412260945	0.03226202298447404	0.3255927911286943	0.047206225454824335	-0.019744144808625835	0.251338828727759	0.051728879268829894	-0.19388126697921437	0.1288626898198109	1.5212657844475255	-0.0921261847521312	0.12442377309505899	1.754897289072027	-0.06552782162777428	0.10501423972619807	1.6315762524329822	0.026972551041560676	-0.04213397575969447	1.428724056919056	-0.10235797490483138	-0.11395093103697189	1.1645853702073607	-0.042694222144594125	-0.07932766770968713	1.205956388305335	0.22647670069283557	0.3039002249989719	1.4213156353846208	-0.099998929342258	0.35326116769272753	1.1787849242442026	-0.05330281850194637	0.2999665889050587	1.1790928871787791	0.19433271803245314
620	12.4	0.11685443620768377	0.9169622478867026	-0.0994645608051467	0.007749599290556042	0.9036787572758546	-0.10009281445688242	-0.023384110749959566	0.5027166670082761	-0.1269123911088045	-0.020392470692780173	0.09512111470262873	-0.15451151158850224	-0.026108097842361424	0.04886212086092616	0.049186959193391395	-0.06872653502763523	0.04742259263374199	-0.005376545295075175	-0.007584829962398867	0.04634679265893007	-0.19481867617850873	0.22839301216325295	0.8995926602654951	-0.0990451372874788	0.24527896032119456	0.5003526563809612	-0.13472733824079935	0.2609288228248491	0.09666853632153866	-0.15902457785535004	0.2668536873804592	0.04430967389176956	0.034597457146845416	0.3110023093551826	0.042596572948858484	-0.018541067450425268	0.2512752478736211	0.05023328696082232	-0.1983058252659213	0.12797878875704866	1.5253109292650502	-0.08557670678614276	0.12262471357328676	1.751530039119631	-0.06187796127756774	0.10733611682973497	1.6340428537062501	0.0408631235590767	-0.04687874217779103	1.4234206594831569	-0.09881350558322215	-0.11686978506099727	1.1547412513957922	-0.04848234195953501	-0.09091078526862086	1.1885704136156927	0.22632932642824738	0.3071953511064161	1.419025585504756	-0.09306995840819521	0.3476952289407516	1.1640600505635377	-0.04344330191379633	0.3149692818080947	1.152035698811988	0.24198876943261818
621	12.42	0.11442264091970548	0.916724489771542	-0.09916211910769779	0.00800533914480208	0.9029433495162104	-0.10194560512404198	-0.021264843729787795	0.5005150819515751	-0.13287224468243788	-0.01756464540895701	0.09602168002510961	-0.14844251873611064	-0.026271561644710145	0.04338852531863361	0.03879058053008941	-0.07315641344237638	0.042835157379955704	-0.023956090843610753	-0.004116822021896653	0.0510817374545821	-0.18910101898579368	0.22693999254140643	0.9023849339452278	-0.10703648484963152	0.24618068459759257	0.49991156708991596	-0.13641769911998172	0.26013222780935474	0.0963012168414584	-0.1546813610241733	0.2770239790008955	0.0415213547501575	0.03424389266440589	0.32283788098708993	0.046114102431295684	-0.020879529573556373	0.2502068287999319	0.04836654807751827	-0.19933581513646306	0.12957636951024695	1.5233952371307713	-0.087578411007005	0.12259334285550819	1.7549745847695704	-0.061438371785163266	0.10190694784981957	1.6323347914779769	0.02104866310750483	-0.04077823048699553	1.4273066940909964	-0.10318252427245711	-0.11101528321074541	1.1642315282167597	-0.04096233035953186	-0.08666814347438756	1.1761555195796212	0.2226138124892466	0.3053665185946605	1.4210480086082382	-0.10228094238945974	0.3494366985688352	1.1735790020845176	-0.048639273196143175	0.31132522445736677	1.1492282851964588	0.230768508912173
622	12.44	0.11418348437338015	0.9153457486422323	-0.09627349806090237	0.00718504623015274	0.9027131076681287	-0.09931732107887377	-0.02104359319218161	0.5006301863997602	-0.13127307904910265	-0.01825056588766958	0.09804495443230493	-0.1485027748238848	-0.024505258782515048	0.044305445075961895	0.038086316883220686	-0.07069671440452145	0.04302674810246126	-0.025780073963819386	-0.005130442808815113	0.05161319824119063	-0.1876768454579668	0.2266764531568942	0.9007178940838635	-0.1065677144174709	0.24461213945763138	0.5001412202443232	-0.13189199230938983	0.25980606672884815	0.0996926145694772	-0.1538451833997692	0.28046528959137845	0.04407259148837022	0.03549564725259194	0.3232372617222325	0.04879301245554106	-0.02023783528403898	0.25114432227677724	0.051303211073480584	-0.1965977071763526	0.12801002487321606	1.5249306623184704	-0.08794955668231277	0.12357857802838029	1.7544131275685744	-0.06153507003029866	0.10199963415439021	1.6328128475166541	0.017917039576142147	-0.03997166152836062	1.4298609142213285	-0.09950784214890385	-0.11340543336554977	1.1660539105109242	-0.05057938303437494	-0.09591643200701247	1.161008352675664	0.19321113610790297	0.30533903960206826	1.4222218130360653	-0.103332775709348	0.34980146385343425	1.1707116096891308	-0.05584576370827479	0.31572425234158413	1.1380121422718519	0.21330189513989717
623	12.46	0.11422613915545751	0.9135772837423894	-0.10041448080289901	0.007335896370303997	0.8995804770703805	-0.09674007451333168	-0.020795160308520952	0.4978548874202178	-0.13361210832317072	-0.01819977899040685	0.09851065218274128	-0.1474954682783762	-0.023087692583741957	0.04500659852356989	0.0472982269222344	-0.06828922387511388	0.04628061894805467	-0.013802513788297601	-0.0062969221950293554	0.05377283499066207	-0.18748529714007592	0.22651179632963053	0.8962701111145056	-0.10512904955253996	0.24412654391367156	0.5000643064473419	-0.13724885443936635	0.26091624370428235	0.0973606709495606	-0.16056727117805797	0.27893391112070676	0.044417994473918705	0.032837002401588225	0.32472095934667533	0.047273124867148394	-0.021411714905707854	0.2510350643146289	0.050490984771641975	-0.1944940807812623	0.12807680517749992	1.5264305686796238	-0.09113736144275267	0.1251793631697688	1.7565769954460613	-0.06181298250888767	0.10574011870317467	1.6334548624435938	0.023725141814658006	-0.04234697776567538	1.4287363840565575	-0.09637827150344172	-0.11411116068174244	1.1677164407270983	-0.05014530186590806	-0.09135797526251274	1.1504557183359356	0.2167061552445698	0.3012191956972496	1.4225409025184483	-0.10843264460937535	0.3456894856401072	1.1762272718817348	-0.060589597555979445	0.31754490559050413	1.121461709638748	0.21641989900778877
624	12.48	0.11564252069916828	0.9149769288740004	-0.103141452442076	0.006177189444510988	0.9053688173629464	-0.10338371285341365	-0.023529140560613334	0.4994381884575482	-0.13148035917718912	-0.017972894706540794	0.09370692754873357	-0.15035791211206076	-0.03185620787019569	0.04452824201383865	0.041970252663364516	-0.073045852606122	0.043265961662288015	-0.014368459301697997	-0.006360470169281906	0.044010084511406665	-0.1964590142665016	0.22721861080453298	0.8988754135919025	-0.10165195183050309	0.2440905987061573	0.4994751748832613	-0.1345387628320414	0.26208969733803794	0.09553559557202095	-0.16337154003725637	0.2747235091385662	0.043234513086459	0.03497261308120471	0.3190539461867608	0.04106545150141564	-0.021387538195845962	0.2500332391768381	0.0486328764020546	-0.19848478020304722	0.12797449834853541	1.525456027610575	-0.08759615613689266	0.12372018961292296	1.7532460470523916	-0.061494314588103685	0.11406684041716862	1.634450921697245	0.05362956841152094	-0.04568507907591532	1.4252018459351807	-0.10418335442853467	-0.11951897601050916	1.155881371653872	-0.05959940693476278	-0.10778194032754246	1.1381359698962152	0.20456493906526257	0.30357418459400015	1.4197570636995545	-0.09760286804234711	0.34792635858401644	1.1638969223340914	-0.04824989352139633	0.33449701860714465	1.105878283701729	0.22834418542199006
